<?xml version="1.0" encoding="utf-8"?>
<!-- Generator: Adobe Illustrator 27.9.6, SVG Export Plug-In . SVG Version: 9.03 Build 54986)  -->
<svg version="1.1" id="Layer_2_00000088823876835899336450000002875682427802162366_"
	 xmlns="http://www.w3.org/2000/svg" xmlns:xlink="http://www.w3.org/1999/xlink" x="0px" y="0px" viewBox="0 0 182.1 56.7"
	 style="enable-background:new 0 0 182.1 56.7;" xml:space="preserve">
<style type="text/css">
	.st0{display:none;}
	.st1{clip-path:url(#SVGID_00000131348461501600200510000016249145541232243854_);}
	.st2{fill:#FFFFFF;}
</style>
<g>
	<rect y="0.4" class="st0" width="184.4" height="56.3"/>
	<g id="Layer_2-2">
		<g id="Layer_1-2">
			<g>
				<g>
					<defs>
						<rect id="SVGID_1_" x="3.5" y="0.4" width="133.2" height="54.7"/>
					</defs>
					<clipPath id="SVGID_00000085967266155360841240000013089064176327367049_">
						<use xlink:href="#SVGID_1_"  style="overflow:visible;"/>
					</clipPath>
					<g style="clip-path:url(#SVGID_00000085967266155360841240000013089064176327367049_);">
						<g>
							<path class="st2" d="M123.3,0.4c-2.7,12.8-5.4,25.6-8,38.3H115c-2.4-12.8-4.8-25.6-7.2-38.3H56.3v13h15.4v41.7h13.1V13.5H97
								c3.1,11.9,4.6,24.3,8.5,36c1.5,4.3,4.8,5.5,9.4,5.5l1.4-0.1c6.3-0.2,8.4-5.8,9.8-11.1c3.6-14.5,7-29,10.5-43.5L123.3,0.4
								L123.3,0.4L123.3,0.4z"/>
							<path class="st2" d="M32.2,36V0.4H18.9V36c0,0.5,0,0.6,0,1.2c0,0.6-0.1,1.4-0.5,2.1c-0.8,1.4-1.8,2-3.3,2.1
								c-1.4,0.1-2.7,0.1-4.1,0.1H3.5v13.6h6.9c1.9,0,3.8,0,5.7-0.1c3.8-0.2,7.5-0.9,10.6-3.3c2.3-1.8,3.8-4.1,4.6-6.9
								C32.1,41.9,32.2,39,32.2,36L32.2,36C32.2,36,32.2,36,32.2,36z"/>
							<path class="st2" d="M37.6,36V0.4h13.3V36c0,0.5,0,0.6,0,1.2c0,0.6,0.1,1.4,0.5,2.1c0.8,1.4,1.8,2,3.3,2.1
								c1.3,0.1,2.7,0.1,4.1,0.1h7.6v13.6h-7c-1.9,0-3.8,0-5.7-0.1c-3.8-0.2-7.5-0.9-10.6-3.3c-2.3-1.8-3.8-4.1-4.6-6.9
								C37.7,41.9,37.6,39,37.6,36L37.6,36C37.6,36,37.6,36,37.6,36z"/>
						</g>
					</g>
				</g>
			</g>
		</g>
	</g>
	<g>
		<path class="st2" d="M170.5,35c-1.9,0-2.8-0.1-3.1,0.3c-0.4,0.4-0.3,1.3-0.3,3.2v4.6c0,3.1,0.3,4.4-4,4.4s-4-1.4-4-4.4v-4.6
			c0-1.9,0.1-2.9-0.3-3.2s-1.3-0.3-3.2-0.3H151c-3.1,0-4.4,0.3-4.4-4c0-4.3,1.4-4,4.4-4h4.6c1.9,0,2.8,0.1,3.2-0.3
			c0.3-0.3,0.3-1.2,0.3-3.1v-4.6c0-3.1-0.3-4.4,4-4.4s4,1.4,4,4.4v4.6c0,1.9,0,2.7,0.3,3.1s1.2,0.3,3.1,0.3h4.6c3.1,0,4.4-0.3,4.4,4
			c0,4.3-1.4,4-4.4,4H170.5z"/>
	</g>
</g>
</svg>
