<?xml version="1.0" encoding="UTF-8"?>
<svg id="Layer_2" data-name="Layer 2" xmlns="http://www.w3.org/2000/svg" xmlns:xlink="http://www.w3.org/1999/xlink" viewBox="0 0 374.69 56.72">
  <defs>
    <style>
      .cls-1 {
        fill: none;
      }

      .cls-1, .cls-2, .cls-3 {
        stroke-width: 0px;
      }

      .cls-2 {
        fill: #fff;
      }

      .cls-4 {
        fill: url(#linear-gradient);
        stroke: #fff;
        stroke-miterlimit: 10;
        stroke-width: 7.17px;
      }

      .cls-5 {
        clip-path: url(#clippath);
      }

      .cls-3 {
        fill: #b7b9bb;
        isolation: isolate;
        opacity: .39;
      }
    </style>
    <linearGradient id="linear-gradient" x1="328.06" y1="-72.89" x2="371.1" y2="-72.89" gradientTransform="translate(0 -45.17) scale(1 -1)" gradientUnits="userSpaceOnUse">
      <stop offset="0" stop-color="#1d1d6b"/>
      <stop offset="1" stop-color="#0480c5"/>
    </linearGradient>
    <clipPath id="clippath">
      <rect class="cls-1" y=".38" width="133.18" height="54.7"/>
    </clipPath>
  </defs>
  <g id="Layer_2-2" data-name="Layer 2">
    <g id="Layer_1-2" data-name="Layer 1-2">
      <g>
        <g>
          <g>
            <path class="cls-3" d="m354.89,1.23l-39.66,22.9c-2.77,1.6-2.77,5.59,0,7.19l39.66,22.9c2.77,1.6,6.23-.4,6.23-3.6V4.82c0-3.2-3.46-5.19-6.23-3.6h0Z"/>
            <path class="cls-4" d="m368.77,23.68l-33.71-19.46c-3.11-1.8-7,.45-7,4.04v38.93c0,3.59,3.89,5.84,7,4.04l33.71-19.46c3.11-1.8,3.11-6.29,0-8.09Z"/>
          </g>
          <g>
            <path class="cls-2" d="m199.94,52.56c0,1.95-1.55,3.5-3.42,3.5-1.47,0-2.77-.9-3.26-2.2l-3.91-10.18h-27.93l-3.91,10.18c-.41,1.3-1.71,2.2-3.18,2.2-1.95,0-3.5-1.55-3.5-3.42,0-.41.16-.9.33-1.38l18.73-46.42c.9-2.2,3.01-3.75,5.54-3.75s4.64,1.55,5.46,3.75l18.81,46.42c.08.41.24.9.24,1.3h0Zm-12.86-14.9l-11.64-30.21-11.65,30.21h23.29,0Z"/>
            <path class="cls-2" d="m219.16,52.32l-18.65-46.34c-.25-.41-.33-.81-.33-1.3,0-1.95,1.55-3.58,3.58-3.58,1.47,0,2.85.9,3.34,2.28l17.59,44.95L242.28,3.38c.49-1.38,1.79-2.28,3.34-2.28,1.95,0,3.58,1.63,3.58,3.58,0,.49-.16.9-.33,1.3l-18.65,46.34c-.9,2.2-3.01,3.75-5.54,3.75s-4.72-1.55-5.54-3.75h.02Z"/>
            <path class="cls-2" d="m281.05.52c16.04,0,26.96,12.05,26.96,28.1s-10.91,28.1-26.96,28.1-26.96-12.05-26.96-28.1S264.92.52,281.05.52Zm0,6.03c-12.21,0-19.95,9.37-19.95,22.07s7.74,22.07,19.95,22.07,19.95-9.45,19.95-22.07-7.82-22.07-19.95-22.07Z"/>
          </g>
        </g>
        <g class="cls-5">
          <g>
            <path class="cls-2" d="m119.85.38c-2.69,12.82-5.37,25.6-8.04,38.35h-.24c-2.42-12.8-4.83-25.58-7.25-38.35h-51.52v12.97h15.35v41.71h13.08V13.54h12.33c3.13,11.93,4.58,24.33,8.51,36.03,1.46,4.26,4.85,5.51,9.44,5.5l1.45-.06c6.3-.24,8.36-5.81,9.75-11.09,3.56-14.51,7.01-29,10.47-43.54h-13.34,0Z"/>
            <path class="cls-2" d="m28.79,36.02V.39h-13.3v35.62c0,.47,0,.64-.03,1.21-.03.58-.1,1.37-.51,2.07-.78,1.37-1.83,1.97-3.32,2.09-1.35.11-2.71.08-4.06.1H0v13.58h6.95c1.89,0,3.79,0,5.67-.08,3.8-.16,7.49-.92,10.64-3.27,2.34-1.76,3.75-4.13,4.58-6.93.85-2.87.93-5.81.94-8.74h0s.01-.02.01-.02Z"/>
            <path class="cls-2" d="m34.16,36.02V.39h13.3v35.62c0,.47,0,.64.03,1.21.03.58.1,1.37.51,2.07.78,1.37,1.83,1.97,3.32,2.09,1.35.11,2.71.08,4.06.1h7.58v13.58h-6.95c-1.89,0-3.79,0-5.67-.08-3.8-.16-7.49-.92-10.64-3.27-2.34-1.76-3.75-4.13-4.58-6.93-.85-2.87-.93-5.81-.94-8.74h0s-.02-.02-.02-.02Z"/>
          </g>
        </g>
      </g>
    </g>
  </g>
</svg>