<?xml version="1.0" encoding="UTF-8"?>
<svg id="Layer_1" data-name="Layer 1" xmlns="http://www.w3.org/2000/svg" viewBox="0 0 500 200">
  <defs>
    <style>
      .cls-1 {
        fill: #fff;
        stroke-width: 0px;
      }
    </style>
  </defs>
  <path class="cls-1" d="m78.58,61.58c0,5.8-3.92,9.27-8.87,9.92-1.54.2-2.73.2-4.46.2h-6.35v13.98h-4.26v-34.21h10.61c1.73,0,2.92,0,4.46.2,5.45.69,8.87,4.11,8.87,9.92Zm-4.56,0c0-3.97-2.13-5.75-4.56-6.3-.94-.2-2.28-.25-3.82-.25h-6.74v13.09h6.74c1.54,0,2.88-.05,3.82-.25,2.43-.55,4.56-2.33,4.56-6.3Z"/>
  <path class="cls-1" d="m87.05,78.14c0,.79,0,1.64.05,2.48.1,1.69.89,2.23,3.22,1.98v3.07c-.94.15-2.03.2-3.02.2-2.48,0-4.31-.79-4.46-4.12-.05-.89-.05-2.03-.05-3.47v-29.05h4.26v28.9Z"/>
  <path class="cls-1" d="m116.7,73.82h-19.04c.4,6.94,3.67,9.27,7.54,9.27,3.42,0,6.2-2.13,6.79-5.9h4.46c-1.04,6.35-6.05,9.17-11.45,9.17-6.84,0-11.95-4.46-11.95-13.73,0-8.53,5.3-13.93,12.49-13.93s11.25,5.4,11.25,13.09c0,.4,0,1.09-.1,2.03Zm-18.99-3.27h14.77c-.4-5.45-2.73-8.58-7.04-8.58s-7.24,2.97-7.73,8.58Z"/>
  <path class="cls-1" d="m137.07,81.91l-1.44,2.83c-1.79,1.24-4.07,1.64-6.59,1.64-4.76,0-8.48-2.63-8.48-7.49,0-5.95,4.46-9.02,14.77-9.02h1.69v-.69c0-1.14,0-2.18-.1-3.17-.2-2.43-1.59-4.02-5.11-4.02s-5.35,1.93-5.65,5.55h-4.46c.4-5.6,4.31-8.83,10.11-8.83,6.25,0,8.87,2.63,9.32,6.94.1,1.04.15,2.33.15,3.47v9.87c0,1.98.1,3.77.5,6.69h-4.26l-.45-3.77Zm-.05-6.2v-2.68c-7.24-.55-11.8.99-11.8,5.5,0,3.17,2.03,4.56,5.25,4.56,3.97,0,6.54-2.63,6.54-7.39Z"/>
  <path class="cls-1" d="m166.07,66.88h-4.46c-.59-3.07-2.48-4.91-5.55-4.91s-4.36,1.64-4.36,3.92c0,2.63,2.18,3.67,5.75,4.61,6.05,1.59,8.92,3.97,8.92,8.43,0,4.96-4.21,7.44-9.77,7.44s-9.52-2.48-10.31-8.43h4.46c.69,3.82,3.12,5.16,6.15,5.16,2.83,0,5.11-1.29,5.11-3.82s-1.78-3.87-6.2-5.06c-4.71-1.29-8.48-3.22-8.48-7.83s3.67-7.68,9.07-7.68c5.9,0,9.12,3.37,9.67,8.18Z"/>
  <path class="cls-1" d="m192.99,73.82h-19.04c.4,6.94,3.67,9.27,7.54,9.27,3.42,0,6.2-2.13,6.79-5.9h4.46c-1.04,6.35-6.05,9.17-11.45,9.17-6.84,0-11.95-4.46-11.95-13.73,0-8.53,5.3-13.93,12.49-13.93s11.25,5.4,11.25,13.09c0,.4,0,1.09-.1,2.03Zm-18.99-3.27h14.77c-.4-5.45-2.73-8.58-7.04-8.58s-7.24,2.97-7.73,8.58Z"/>
  <path class="cls-1" d="m223.93,54.94v30.74h-4.26v-30.74h-12.2v-3.47h28.65v3.47h-12.2Z"/>
  <path class="cls-1" d="m252.13,81.91l-1.44,2.83c-1.79,1.24-4.07,1.64-6.59,1.64-4.76,0-8.48-2.63-8.48-7.49,0-5.95,4.46-9.02,14.77-9.02h1.69v-.69c0-1.14,0-2.18-.1-3.17-.2-2.43-1.59-4.02-5.11-4.02s-5.35,1.93-5.65,5.55h-4.46c.4-5.6,4.31-8.83,10.11-8.83,6.25,0,8.87,2.63,9.32,6.94.1,1.04.15,2.33.15,3.47v9.87c0,1.98.1,3.77.5,6.69h-4.26l-.45-3.77Zm-.05-6.2v-2.68c-7.24-.55-11.8.99-11.8,5.5,0,3.17,2.03,4.56,5.25,4.56,3.97,0,6.54-2.63,6.54-7.39Z"/>
  <path class="cls-1" d="m288.97,72.14c0,9.72-6.05,14.23-12.84,14.23-2.18,0-4.96-.64-6.3-1.73l-1.74-2.58v13.34h-4.26v-35.99h4.26v4.21l1.98-2.83c1.49-1.24,4.26-2.08,6.94-2.08,7.68,0,11.95,5.75,11.95,13.44Zm-4.66.5c0-5.95-2.68-10.66-7.93-10.66-4.36,0-8.28,2.78-8.28,10.31v1.44c0,6.79,4.26,9.37,8.03,9.37,4.61,0,8.18-3.57,8.18-10.46Z"/>
  <path class="cls-1" d="m309.94,77.99c0,.89,0,1.34.05,2.03.2,2.53,1.24,3.07,4.56,2.68v3.12c-1.24.2-2.43.25-3.62.25-3.27,0-4.96-1.34-5.21-4.61-.05-.69-.05-1.79-.05-3.27v-15.32h-3.52v-3.27h3.52v-6.1h4.26v6.1h4.91v3.27h-4.91v15.12Z"/>
  <path class="cls-1" d="m343.6,72.54c0,7.39-4.12,13.83-13.04,13.83s-13.04-6.44-13.04-13.83,4.11-13.83,13.04-13.83,13.04,6.4,13.04,13.83Zm-4.66,0c0-6.2-3.07-10.56-8.38-10.56s-8.38,4.36-8.38,10.56,3.07,10.56,8.38,10.56,8.38-4.41,8.38-10.56Z"/>
  <path class="cls-1" d="m384.69,61.58c0,5.8-3.92,9.27-8.87,9.92-1.54.2-2.73.2-4.46.2h-6.35v13.98h-4.26v-34.21h10.61c1.74,0,2.93,0,4.46.2,5.45.69,8.87,4.11,8.87,9.92Zm-4.56,0c0-3.97-2.13-5.75-4.56-6.3-.94-.2-2.28-.25-3.82-.25h-6.74v13.09h6.74c1.54,0,2.88-.05,3.82-.25,2.43-.55,4.56-2.33,4.56-6.3Z"/>
  <path class="cls-1" d="m393.17,78.14c0,.79,0,1.64.05,2.48.1,1.69.89,2.23,3.22,1.98v3.07c-.94.15-2.03.2-3.02.2-2.48,0-4.31-.79-4.46-4.12-.05-.89-.05-2.03-.05-3.47v-29.05h4.26v28.9Z"/>
  <path class="cls-1" d="m416.87,81.91l-1.44,2.83c-1.78,1.24-4.06,1.64-6.59,1.64-4.76,0-8.48-2.63-8.48-7.49,0-5.95,4.46-9.02,14.77-9.02h1.69v-.69c0-1.14,0-2.18-.1-3.17-.2-2.43-1.59-4.02-5.11-4.02s-5.36,1.93-5.65,5.55h-4.46c.4-5.6,4.31-8.83,10.11-8.83,6.25,0,8.87,2.63,9.32,6.94.1,1.04.15,2.33.15,3.47v9.87c0,1.98.1,3.77.5,6.69h-4.26l-.45-3.77Zm-.05-6.2v-2.68c-7.24-.55-11.8.99-11.8,5.5,0,3.17,2.03,4.56,5.25,4.56,3.97,0,6.54-2.63,6.54-7.39Z"/>
  <path class="cls-1" d="m439.22,87.9c-2.13,5.55-4.96,8.18-9.22,8.18-.94,0-1.54,0-2.18-.1v-3.47c.64.05,1.09.05,1.54.05,2.63,0,4.36-1.14,5.7-4.61l.35-.94-10.46-27.61h4.81l7.83,23.1,7.78-23.1h4.66l-10.81,28.51Z"/>
  <path class="cls-1" d="m62.27,128.06c0,10.41-5.75,17.8-16.16,17.8s-16.16-7.39-16.16-17.8,5.75-17.8,16.16-17.8,16.16,7.34,16.16,17.8Zm-4.76,0c0-8.92-4.21-14.43-11.4-14.43s-11.4,5.5-11.4,14.43,4.21,14.43,11.4,14.43,11.4-5.55,11.4-14.43Z"/>
  <path class="cls-1" d="m90.03,130.39v14.77h-4.26v-14.48c0-1.34,0-2.43-.1-3.77-.25-3.07-1.93-5.35-6-5.35s-7.58,3.07-7.58,12.05v11.55h-4.26v-26.28h4.26v4.51l1.64-3.02c2.23-1.74,4.16-2.18,6.84-2.18,5.75,0,8.97,3.07,9.37,7.68.1,1.34.1,2.38.1,4.51Z"/>
  <path class="cls-1" d="m143.32,145.16h-4.26v-17.6c0-4.26,0-9.02.1-12.74-1.14,3.72-2.73,8.53-4.16,12.69l-6.05,17.65h-5.35l-6.15-17.75c-1.39-4.07-2.97-8.82-4.06-12.49.1,3.72.1,8.43.1,12.64v17.6h-4.26v-34.21h7.04l10.11,30.59,10.06-30.59h6.89v34.21Z"/>
  <path class="cls-1" d="m174.75,132.02c0,7.39-4.11,13.83-13.04,13.83s-13.04-6.45-13.04-13.83,4.11-13.83,13.04-13.83,13.04,6.39,13.04,13.83Zm-4.66,0c0-6.2-3.07-10.56-8.38-10.56s-8.38,4.36-8.38,10.56,3.07,10.56,8.38,10.56,8.38-4.41,8.38-10.56Z"/>
  <path class="cls-1" d="m205.04,131.63c0,9.72-6.05,14.23-12.84,14.23-2.18,0-4.96-.64-6.3-1.74l-1.74-2.58v3.62h-4.26v-36.44h4.26v14.38l1.98-2.83c1.49-1.24,4.26-2.08,6.94-2.08,7.68,0,11.95,5.75,11.95,13.43Zm-4.66.5c0-5.95-2.68-10.66-7.93-10.66-4.36,0-8.28,2.78-8.28,10.31v1.44c0,6.79,4.26,9.37,8.03,9.37,4.61,0,8.18-3.57,8.18-10.46Z"/>
  <path class="cls-1" d="m215.05,112.99c0,1.54-1.19,2.73-2.73,2.73s-2.73-1.19-2.73-2.73,1.19-2.73,2.73-2.73,2.73,1.19,2.73,2.73Zm-4.86,32.17v-26.28h4.26v26.28h-4.26Z"/>
  <path class="cls-1" d="m226.06,137.63c0,.79,0,1.64.05,2.48.1,1.69.89,2.23,3.22,1.98v3.07c-.94.15-2.03.2-3.02.2-2.48,0-4.31-.79-4.46-4.11-.05-.89-.05-2.03-.05-3.47v-29.05h4.26v28.9Z"/>
  <path class="cls-1" d="m255.7,133.31h-19.04c.4,6.94,3.67,9.27,7.54,9.27,3.42,0,6.2-2.13,6.79-5.9h4.46c-1.04,6.35-6.05,9.17-11.45,9.17-6.84,0-11.95-4.46-11.95-13.73,0-8.53,5.3-13.93,12.49-13.93s11.25,5.4,11.25,13.09c0,.4,0,1.09-.1,2.03Zm-18.99-3.27h14.77c-.4-5.45-2.73-8.58-7.04-8.58s-7.24,2.97-7.73,8.58Z"/>
  <path class="cls-1" d="m297.64,135.1c0,6.25-4.31,9.12-8.82,9.82-1.69.25-2.78.25-4.36.25h-11.01v-34.21h10.06c1.64,0,2.83,0,4.46.2,5.4.74,8.43,3.47,8.43,8.33,0,4.12-2.28,6.3-5.8,7.49,4.51,1.04,7.04,3.42,7.04,8.13Zm-19.93-9.42h6.59c.89,0,1.74-.05,2.73-.2,3.52-.54,4.81-2.63,4.81-5.65,0-3.37-2.18-4.96-5.25-5.3-.89-.1-1.93-.1-2.73-.1h-6.15v11.25Zm15.37,9.87c0-4.21-2.28-5.75-5.55-6.2-1.14-.15-1.93-.2-2.73-.2h-7.09v12.54h7.39c.79,0,1.74-.05,2.38-.1,3.27-.3,5.6-2.33,5.6-6.05Z"/>
  <path class="cls-1" d="m315.34,118.64v3.22c-4.46-.3-7.83,2.33-7.83,8.33v14.97h-4.26v-26.28h4.26v4.12l2.38-3.52c1.09-.74,2.43-1.19,3.67-1.19.69,0,1.29.1,1.78.35Z"/>
  <path class="cls-1" d="m342.9,132.02c0,7.39-4.12,13.83-13.04,13.83s-13.04-6.45-13.04-13.83,4.11-13.83,13.04-13.83,13.04,6.39,13.04,13.83Zm-4.66,0c0-6.2-3.07-10.56-8.38-10.56s-8.38,4.36-8.38,10.56,3.07,10.56,8.38,10.56,8.38-4.41,8.38-10.56Z"/>
  <path class="cls-1" d="m374.63,145.16h-5.06l-5.85-22.11-5.85,22.11h-5.06l-8.38-26.28h4.91l6.1,22.21,5.75-22.21h5.3l5.85,22.06,6.1-22.06h4.56l-8.38,26.28Z"/>
  <path class="cls-1" d="m404.27,126.37h-4.46c-.59-3.07-2.48-4.91-5.55-4.91s-4.36,1.64-4.36,3.92c0,2.63,2.18,3.67,5.75,4.61,6.05,1.59,8.92,3.97,8.92,8.43,0,4.96-4.21,7.44-9.77,7.44s-9.52-2.48-10.31-8.43h4.46c.69,3.82,3.12,5.16,6.15,5.16,2.83,0,5.11-1.29,5.11-3.82s-1.79-3.87-6.2-5.06c-4.71-1.29-8.48-3.22-8.48-7.83s3.67-7.68,9.07-7.68c5.9,0,9.12,3.37,9.67,8.18Z"/>
  <path class="cls-1" d="m431.19,133.31h-19.04c.4,6.94,3.67,9.27,7.54,9.27,3.42,0,6.2-2.13,6.79-5.9h4.46c-1.04,6.35-6.05,9.17-11.45,9.17-6.84,0-11.95-4.46-11.95-13.73,0-8.53,5.3-13.93,12.49-13.93s11.25,5.4,11.25,13.09c0,.4,0,1.09-.1,2.03Zm-18.99-3.27h14.77c-.4-5.45-2.73-8.58-7.04-8.58s-7.24,2.97-7.73,8.58Z"/>
  <path class="cls-1" d="m449.04,118.64v3.22c-4.46-.3-7.83,2.33-7.83,8.33v14.97h-4.26v-26.28h4.26v4.12l2.38-3.52c1.09-.74,2.43-1.19,3.67-1.19.69,0,1.29.1,1.78.35Z"/>
  <path class="cls-1" d="m470.6,126.37h-4.46c-.59-3.07-2.48-4.91-5.55-4.91s-4.36,1.64-4.36,3.92c0,2.63,2.18,3.67,5.75,4.61,6.05,1.59,8.92,3.97,8.92,8.43,0,4.96-4.21,7.44-9.77,7.44s-9.52-2.48-10.31-8.43h4.46c.69,3.82,3.12,5.16,6.15,5.16,2.83,0,5.11-1.29,5.11-3.82s-1.78-3.87-6.2-5.06c-4.71-1.29-8.48-3.22-8.48-7.83s3.67-7.68,9.07-7.68c5.9,0,9.12,3.37,9.67,8.18Z"/>
</svg>